# xmcd
#
# Track frame offsets: 
#        150
#        13026
#        28018
#        35733
#        51222
#        70979
#        90077
#        104270
#        116234
#        134192
#        149553
#
# Disc length: 2281 seconds
#
# Revision: 0
# Processed by: cddbd v1.5.2PL0 Copyright (c) Steve Scherf et al.
# Submitted via: ExactAudioCopyFreeDBPlugin 1.0
#
DISCID=a208e70b
DTITLE=Godiego - CM Song Graffity Vol.2
DYEAR=1982
DGENRE=JPop
TTITLE0=Diango
TTITLE1=Prelude
TTITLE2=Morning
TTITLE3=Dazzled Blind By You
TTITLE4=Magic Capsule
TTITLE5=Loving and Loving
TTITLE6=Doki, Doki, Summer Girl
TTITLE7=Peach Nector -- Let's Get Back -- Delicious -- Havana -- Chest
TTITLE7=nut Tree
TTITLE8=Coming Together In Kathmandu
TTITLE9=Happiness
TTITLE10=Cathey
EXTD=Year: 2008
EXTT0=
EXTT1=
EXTT2=
EXTT3=
EXTT4=
EXTT5=
EXTT6=
EXTT7=
EXTT8=
EXTT9=
EXTT10=
PLAYORDER=
